<mxfile host="app.diagrams.net" modified="2024-06-22T21:22:08.513Z" agent="Mozilla/5.0 (Windows NT 10.0; Win64; x64) AppleWebKit/537.36 (KHTML, like Gecko) Chrome/126.0.0.0 Safari/537.36" etag="pm5ZAIcL-B1_gZJXk05E" version="24.5.5" type="device">
  <diagram name="PÃ¡gina-1" id="48Le5jUoHIRDnnyN9P1C">
    <mxGraphModel dx="875" dy="471" grid="1" gridSize="10" guides="1" tooltips="1" connect="1" arrows="1" fold="1" page="1" pageScale="1" pageWidth="827" pageHeight="1169" math="0" shadow="0">
      <root>
        <mxCell id="0" />
        <mxCell id="1" parent="0" />
        <mxCell id="YSL0ozZD7wdZGUl2RImT-1" value="&amp;nbsp; &amp;nbsp;82" style="rounded=0;whiteSpace=wrap;html=1;align=left;" parent="1" vertex="1">
          <mxGeometry x="230" y="50" width="120" height="30" as="geometry" />
        </mxCell>
        <mxCell id="YSL0ozZD7wdZGUl2RImT-5" value="Q=4&lt;div&gt;elem max=3&lt;/div&gt;&lt;div&gt;elem min=1&lt;br&gt;&lt;/div&gt;" style="text;html=1;align=center;verticalAlign=middle;resizable=0;points=[];autosize=1;strokeColor=none;fillColor=none;" parent="1" vertex="1">
          <mxGeometry x="50" y="60" width="90" height="60" as="geometry" />
        </mxCell>
        <mxCell id="YSL0ozZD7wdZGUl2RImT-6" value="a) Agregar 82" style="text;html=1;align=center;verticalAlign=middle;resizable=0;points=[];autosize=1;strokeColor=none;fillColor=none;" parent="1" vertex="1">
          <mxGeometry x="180" y="20" width="100" height="30" as="geometry" />
        </mxCell>
        <mxCell id="YSL0ozZD7wdZGUl2RImT-8" value="" style="rounded=0;whiteSpace=wrap;html=1;" parent="1" vertex="1">
          <mxGeometry x="270" y="50" width="40" height="30" as="geometry" />
        </mxCell>
        <mxCell id="YSL0ozZD7wdZGUl2RImT-11" value="b) Agregar 12" style="text;html=1;align=center;verticalAlign=middle;resizable=0;points=[];autosize=1;strokeColor=none;fillColor=none;" parent="1" vertex="1">
          <mxGeometry x="180" y="80" width="100" height="30" as="geometry" />
        </mxCell>
        <mxCell id="YSL0ozZD7wdZGUl2RImT-12" value="&amp;nbsp; &amp;nbsp;12&amp;nbsp; &amp;nbsp; &amp;nbsp; &amp;nbsp; &amp;nbsp;82" style="rounded=0;whiteSpace=wrap;html=1;align=left;" parent="1" vertex="1">
          <mxGeometry x="230" y="110" width="120" height="30" as="geometry" />
        </mxCell>
        <mxCell id="YSL0ozZD7wdZGUl2RImT-13" value="82" style="rounded=0;whiteSpace=wrap;html=1;" parent="1" vertex="1">
          <mxGeometry x="270" y="110" width="40" height="30" as="geometry" />
        </mxCell>
        <mxCell id="YSL0ozZD7wdZGUl2RImT-14" value="c) Agregar 102" style="text;html=1;align=center;verticalAlign=middle;resizable=0;points=[];autosize=1;strokeColor=none;fillColor=none;" parent="1" vertex="1">
          <mxGeometry x="180" y="140" width="100" height="30" as="geometry" />
        </mxCell>
        <mxCell id="YSL0ozZD7wdZGUl2RImT-15" value="&amp;nbsp; &amp;nbsp;12&amp;nbsp; &amp;nbsp; &amp;nbsp; &amp;nbsp; &amp;nbsp;82&amp;nbsp; &amp;nbsp; &amp;nbsp; 102" style="rounded=0;whiteSpace=wrap;html=1;align=left;" parent="1" vertex="1">
          <mxGeometry x="230" y="170" width="120" height="30" as="geometry" />
        </mxCell>
        <mxCell id="YSL0ozZD7wdZGUl2RImT-16" value="82" style="rounded=0;whiteSpace=wrap;html=1;" parent="1" vertex="1">
          <mxGeometry x="270" y="170" width="40" height="30" as="geometry" />
        </mxCell>
        <mxCell id="YSL0ozZD7wdZGUl2RImT-17" value="d) Agregar 36" style="text;html=1;align=center;verticalAlign=middle;resizable=0;points=[];autosize=1;strokeColor=none;fillColor=none;" parent="1" vertex="1">
          <mxGeometry x="185" y="200" width="100" height="30" as="geometry" />
        </mxCell>
        <mxCell id="YSL0ozZD7wdZGUl2RImT-18" value="&amp;nbsp; 12&amp;nbsp; &amp;nbsp; &amp;nbsp; &amp;nbsp; &amp;nbsp; &amp;nbsp; &amp;nbsp; &amp;nbsp; &amp;nbsp; &amp;nbsp; &amp;nbsp; 102" style="rounded=0;whiteSpace=wrap;html=1;align=left;" parent="1" vertex="1">
          <mxGeometry x="235" y="230" width="120" height="30" as="geometry" />
        </mxCell>
        <mxCell id="YSL0ozZD7wdZGUl2RImT-19" value="82" style="rounded=0;whiteSpace=wrap;html=1;" parent="1" vertex="1">
          <mxGeometry x="265" y="230" width="30" height="30" as="geometry" />
        </mxCell>
        <mxCell id="E2iFWPw7SRzdKCDip5L--20" value="" style="edgeStyle=orthogonalEdgeStyle;rounded=0;orthogonalLoop=1;jettySize=auto;html=1;entryX=0.525;entryY=0;entryDx=0;entryDy=0;entryPerimeter=0;" edge="1" parent="1" source="YSL0ozZD7wdZGUl2RImT-20" target="E2iFWPw7SRzdKCDip5L--16">
          <mxGeometry relative="1" as="geometry">
            <Array as="points">
              <mxPoint x="310" y="215" />
            </Array>
          </mxGeometry>
        </mxCell>
        <mxCell id="YSL0ozZD7wdZGUl2RImT-20" value="Dummy" style="text;html=1;align=center;verticalAlign=middle;resizable=0;points=[];autosize=1;strokeColor=none;fillColor=none;" parent="1" vertex="1">
          <mxGeometry x="344" y="200" width="60" height="30" as="geometry" />
        </mxCell>
        <mxCell id="YSL0ozZD7wdZGUl2RImT-21" value="&amp;nbsp; &amp;nbsp;12" style="rounded=0;whiteSpace=wrap;html=1;align=left;" parent="1" vertex="1">
          <mxGeometry x="155" y="335" width="120" height="30" as="geometry" />
        </mxCell>
        <mxCell id="E2iFWPw7SRzdKCDip5L--25" style="edgeStyle=none;rounded=0;orthogonalLoop=1;jettySize=auto;html=1;exitX=0.5;exitY=0;exitDx=0;exitDy=0;entryX=0.25;entryY=1;entryDx=0;entryDy=0;endArrow=none;endFill=0;" edge="1" parent="1" source="YSL0ozZD7wdZGUl2RImT-22" target="E2iFWPw7SRzdKCDip5L--22">
          <mxGeometry relative="1" as="geometry" />
        </mxCell>
        <mxCell id="YSL0ozZD7wdZGUl2RImT-22" value="" style="rounded=0;whiteSpace=wrap;html=1;" parent="1" vertex="1">
          <mxGeometry x="195" y="335" width="40" height="30" as="geometry" />
        </mxCell>
        <mxCell id="YSL0ozZD7wdZGUl2RImT-23" value="&amp;nbsp; &amp;nbsp;82&amp;nbsp; &amp;nbsp; &amp;nbsp; 102" style="rounded=0;whiteSpace=wrap;html=1;align=left;" parent="1" vertex="1">
          <mxGeometry x="315" y="335" width="120" height="30" as="geometry" />
        </mxCell>
        <mxCell id="YSL0ozZD7wdZGUl2RImT-24" value="102" style="rounded=0;whiteSpace=wrap;html=1;" parent="1" vertex="1">
          <mxGeometry x="355" y="335" width="40" height="30" as="geometry" />
        </mxCell>
        <mxCell id="E2iFWPw7SRzdKCDip5L--1" value="e) Agregar 61" style="text;html=1;align=center;verticalAlign=middle;resizable=0;points=[];autosize=1;strokeColor=none;fillColor=none;" vertex="1" parent="1">
          <mxGeometry x="185" y="365" width="100" height="30" as="geometry" />
        </mxCell>
        <mxCell id="E2iFWPw7SRzdKCDip5L--2" value="&amp;nbsp; &amp;nbsp;36" style="rounded=0;whiteSpace=wrap;html=1;align=left;" vertex="1" parent="1">
          <mxGeometry x="235" y="395" width="120" height="30" as="geometry" />
        </mxCell>
        <mxCell id="E2iFWPw7SRzdKCDip5L--3" value="" style="rounded=0;whiteSpace=wrap;html=1;" vertex="1" parent="1">
          <mxGeometry x="275" y="395" width="40" height="30" as="geometry" />
        </mxCell>
        <mxCell id="E2iFWPw7SRzdKCDip5L--5" value="&amp;nbsp; &amp;nbsp;12" style="rounded=0;whiteSpace=wrap;html=1;align=left;" vertex="1" parent="1">
          <mxGeometry x="155" y="445" width="120" height="30" as="geometry" />
        </mxCell>
        <mxCell id="E2iFWPw7SRzdKCDip5L--6" value="" style="rounded=0;whiteSpace=wrap;html=1;" vertex="1" parent="1">
          <mxGeometry x="195" y="445" width="40" height="30" as="geometry" />
        </mxCell>
        <mxCell id="E2iFWPw7SRzdKCDip5L--7" value="&amp;nbsp; &amp;nbsp;61&amp;nbsp; &amp;nbsp; &amp;nbsp; &amp;nbsp; &amp;nbsp;82&amp;nbsp; &amp;nbsp; &amp;nbsp; 102" style="rounded=0;whiteSpace=wrap;html=1;align=left;" vertex="1" parent="1">
          <mxGeometry x="315" y="445" width="120" height="30" as="geometry" />
        </mxCell>
        <mxCell id="E2iFWPw7SRzdKCDip5L--8" value="82" style="rounded=0;whiteSpace=wrap;html=1;" vertex="1" parent="1">
          <mxGeometry x="355" y="445" width="40" height="30" as="geometry" />
        </mxCell>
        <mxCell id="E2iFWPw7SRzdKCDip5L--9" value="f) Eliminar 82" style="text;html=1;align=center;verticalAlign=middle;resizable=0;points=[];autosize=1;strokeColor=none;fillColor=none;" vertex="1" parent="1">
          <mxGeometry x="190" y="475" width="90" height="30" as="geometry" />
        </mxCell>
        <mxCell id="E2iFWPw7SRzdKCDip5L--10" value="&amp;nbsp; &amp;nbsp;36" style="rounded=0;whiteSpace=wrap;html=1;align=left;" vertex="1" parent="1">
          <mxGeometry x="235" y="505" width="120" height="30" as="geometry" />
        </mxCell>
        <mxCell id="E2iFWPw7SRzdKCDip5L--11" value="" style="rounded=0;whiteSpace=wrap;html=1;" vertex="1" parent="1">
          <mxGeometry x="275" y="505" width="40" height="30" as="geometry" />
        </mxCell>
        <mxCell id="E2iFWPw7SRzdKCDip5L--12" value="&amp;nbsp; &amp;nbsp;12" style="rounded=0;whiteSpace=wrap;html=1;align=left;" vertex="1" parent="1">
          <mxGeometry x="155" y="555" width="120" height="30" as="geometry" />
        </mxCell>
        <mxCell id="E2iFWPw7SRzdKCDip5L--13" value="" style="rounded=0;whiteSpace=wrap;html=1;" vertex="1" parent="1">
          <mxGeometry x="195" y="555" width="40" height="30" as="geometry" />
        </mxCell>
        <mxCell id="E2iFWPw7SRzdKCDip5L--14" value="&amp;nbsp; &amp;nbsp;61&amp;nbsp; &amp;nbsp; &amp;nbsp; &amp;nbsp;102" style="rounded=0;whiteSpace=wrap;html=1;align=left;" vertex="1" parent="1">
          <mxGeometry x="315" y="555" width="120" height="30" as="geometry" />
        </mxCell>
        <mxCell id="E2iFWPw7SRzdKCDip5L--15" value="102" style="rounded=0;whiteSpace=wrap;html=1;" vertex="1" parent="1">
          <mxGeometry x="355" y="555" width="40" height="30" as="geometry" />
        </mxCell>
        <mxCell id="E2iFWPw7SRzdKCDip5L--16" value="36" style="text;html=1;align=center;verticalAlign=middle;resizable=0;points=[];autosize=1;strokeColor=none;fillColor=none;" vertex="1" parent="1">
          <mxGeometry x="289" y="230" width="40" height="30" as="geometry" />
        </mxCell>
        <mxCell id="E2iFWPw7SRzdKCDip5L--18" value="" style="endArrow=none;html=1;rounded=0;entryX=0.796;entryY=-0.002;entryDx=0;entryDy=0;entryPerimeter=0;exitX=0.796;exitY=0.999;exitDx=0;exitDy=0;exitPerimeter=0;" edge="1" parent="1">
          <mxGeometry width="50" height="50" relative="1" as="geometry">
            <mxPoint x="323.8399999999999" y="259.97" as="sourcePoint" />
            <mxPoint x="323.8399999999999" y="229.94" as="targetPoint" />
          </mxGeometry>
        </mxCell>
        <mxCell id="E2iFWPw7SRzdKCDip5L--26" style="edgeStyle=none;rounded=0;orthogonalLoop=1;jettySize=auto;html=1;exitX=0.75;exitY=1;exitDx=0;exitDy=0;entryX=0.5;entryY=0;entryDx=0;entryDy=0;endArrow=none;endFill=0;" edge="1" parent="1" source="E2iFWPw7SRzdKCDip5L--22" target="YSL0ozZD7wdZGUl2RImT-24">
          <mxGeometry relative="1" as="geometry" />
        </mxCell>
        <mxCell id="E2iFWPw7SRzdKCDip5L--22" value="&amp;nbsp; &amp;nbsp;36" style="rounded=0;whiteSpace=wrap;html=1;align=left;" vertex="1" parent="1">
          <mxGeometry x="235" y="290" width="120" height="30" as="geometry" />
        </mxCell>
        <mxCell id="E2iFWPw7SRzdKCDip5L--23" value="Split" style="text;html=1;align=center;verticalAlign=middle;resizable=0;points=[];autosize=1;strokeColor=none;fillColor=none;" vertex="1" parent="1">
          <mxGeometry x="210" y="260" width="50" height="30" as="geometry" />
        </mxCell>
        <mxCell id="E2iFWPw7SRzdKCDip5L--24" value="" style="rounded=0;whiteSpace=wrap;html=1;" vertex="1" parent="1">
          <mxGeometry x="275" y="290" width="40" height="30" as="geometry" />
        </mxCell>
        <mxCell id="E2iFWPw7SRzdKCDip5L--27" style="edgeStyle=none;rounded=0;orthogonalLoop=1;jettySize=auto;html=1;exitX=0.75;exitY=1;exitDx=0;exitDy=0;entryX=0.5;entryY=0;entryDx=0;entryDy=0;endArrow=none;endFill=0;" edge="1" parent="1" source="E2iFWPw7SRzdKCDip5L--2" target="E2iFWPw7SRzdKCDip5L--8">
          <mxGeometry relative="1" as="geometry">
            <mxPoint x="335" y="330" as="sourcePoint" />
            <mxPoint x="385" y="345" as="targetPoint" />
          </mxGeometry>
        </mxCell>
        <mxCell id="E2iFWPw7SRzdKCDip5L--28" style="edgeStyle=none;rounded=0;orthogonalLoop=1;jettySize=auto;html=1;exitX=0.75;exitY=1;exitDx=0;exitDy=0;entryX=0.5;entryY=0;entryDx=0;entryDy=0;endArrow=none;endFill=0;" edge="1" parent="1" source="E2iFWPw7SRzdKCDip5L--10" target="E2iFWPw7SRzdKCDip5L--15">
          <mxGeometry relative="1" as="geometry">
            <mxPoint x="345" y="340" as="sourcePoint" />
            <mxPoint x="395" y="355" as="targetPoint" />
          </mxGeometry>
        </mxCell>
        <mxCell id="E2iFWPw7SRzdKCDip5L--29" style="edgeStyle=none;rounded=0;orthogonalLoop=1;jettySize=auto;html=1;exitX=0.25;exitY=1;exitDx=0;exitDy=0;entryX=0.5;entryY=0;entryDx=0;entryDy=0;endArrow=none;endFill=0;" edge="1" parent="1" source="E2iFWPw7SRzdKCDip5L--2" target="E2iFWPw7SRzdKCDip5L--6">
          <mxGeometry relative="1" as="geometry">
            <mxPoint x="355" y="350" as="sourcePoint" />
            <mxPoint x="405" y="365" as="targetPoint" />
          </mxGeometry>
        </mxCell>
        <mxCell id="E2iFWPw7SRzdKCDip5L--30" style="edgeStyle=none;rounded=0;orthogonalLoop=1;jettySize=auto;html=1;exitX=0.25;exitY=1;exitDx=0;exitDy=0;entryX=0.5;entryY=0;entryDx=0;entryDy=0;endArrow=none;endFill=0;" edge="1" parent="1" source="E2iFWPw7SRzdKCDip5L--10" target="E2iFWPw7SRzdKCDip5L--13">
          <mxGeometry relative="1" as="geometry">
            <mxPoint x="365" y="360" as="sourcePoint" />
            <mxPoint x="415" y="375" as="targetPoint" />
          </mxGeometry>
        </mxCell>
        <mxCell id="E2iFWPw7SRzdKCDip5L--31" value="g) Eliminar 36" style="text;html=1;align=center;verticalAlign=middle;resizable=0;points=[];autosize=1;strokeColor=none;fillColor=none;" vertex="1" parent="1">
          <mxGeometry x="185" y="585" width="100" height="30" as="geometry" />
        </mxCell>
        <mxCell id="E2iFWPw7SRzdKCDip5L--32" value="&amp;nbsp; &amp;nbsp;61" style="rounded=0;whiteSpace=wrap;html=1;align=left;" vertex="1" parent="1">
          <mxGeometry x="235" y="615" width="120" height="30" as="geometry" />
        </mxCell>
        <mxCell id="E2iFWPw7SRzdKCDip5L--33" value="" style="rounded=0;whiteSpace=wrap;html=1;" vertex="1" parent="1">
          <mxGeometry x="275" y="615" width="40" height="30" as="geometry" />
        </mxCell>
        <mxCell id="E2iFWPw7SRzdKCDip5L--34" value="&amp;nbsp; &amp;nbsp;12" style="rounded=0;whiteSpace=wrap;html=1;align=left;" vertex="1" parent="1">
          <mxGeometry x="155" y="665" width="120" height="30" as="geometry" />
        </mxCell>
        <mxCell id="E2iFWPw7SRzdKCDip5L--35" value="" style="rounded=0;whiteSpace=wrap;html=1;" vertex="1" parent="1">
          <mxGeometry x="195" y="665" width="40" height="30" as="geometry" />
        </mxCell>
        <mxCell id="E2iFWPw7SRzdKCDip5L--36" value="&amp;nbsp; 102" style="rounded=0;whiteSpace=wrap;html=1;align=left;" vertex="1" parent="1">
          <mxGeometry x="315" y="665" width="120" height="30" as="geometry" />
        </mxCell>
        <mxCell id="E2iFWPw7SRzdKCDip5L--37" value="" style="rounded=0;whiteSpace=wrap;html=1;" vertex="1" parent="1">
          <mxGeometry x="355" y="665" width="40" height="30" as="geometry" />
        </mxCell>
        <mxCell id="E2iFWPw7SRzdKCDip5L--38" style="edgeStyle=none;rounded=0;orthogonalLoop=1;jettySize=auto;html=1;exitX=0.75;exitY=1;exitDx=0;exitDy=0;entryX=0.5;entryY=0;entryDx=0;entryDy=0;endArrow=none;endFill=0;" edge="1" parent="1" source="E2iFWPw7SRzdKCDip5L--32" target="E2iFWPw7SRzdKCDip5L--37">
          <mxGeometry relative="1" as="geometry">
            <mxPoint x="345" y="450" as="sourcePoint" />
            <mxPoint x="395" y="465" as="targetPoint" />
          </mxGeometry>
        </mxCell>
        <mxCell id="E2iFWPw7SRzdKCDip5L--39" style="edgeStyle=none;rounded=0;orthogonalLoop=1;jettySize=auto;html=1;exitX=0.25;exitY=1;exitDx=0;exitDy=0;entryX=0.5;entryY=0;entryDx=0;entryDy=0;endArrow=none;endFill=0;" edge="1" parent="1" source="E2iFWPw7SRzdKCDip5L--32" target="E2iFWPw7SRzdKCDip5L--35">
          <mxGeometry relative="1" as="geometry">
            <mxPoint x="365" y="470" as="sourcePoint" />
            <mxPoint x="415" y="485" as="targetPoint" />
          </mxGeometry>
        </mxCell>
        <mxCell id="E2iFWPw7SRzdKCDip5L--58" value="h) Eliminar 102" style="text;html=1;align=center;verticalAlign=middle;resizable=0;points=[];autosize=1;strokeColor=none;fillColor=none;" vertex="1" parent="1">
          <mxGeometry x="185" y="695" width="100" height="30" as="geometry" />
        </mxCell>
        <mxCell id="E2iFWPw7SRzdKCDip5L--59" value="&amp;nbsp; &amp;nbsp;61" style="rounded=0;whiteSpace=wrap;html=1;align=left;" vertex="1" parent="1">
          <mxGeometry x="235" y="725" width="120" height="30" as="geometry" />
        </mxCell>
        <mxCell id="E2iFWPw7SRzdKCDip5L--60" value="" style="rounded=0;whiteSpace=wrap;html=1;" vertex="1" parent="1">
          <mxGeometry x="275" y="725" width="40" height="30" as="geometry" />
        </mxCell>
        <mxCell id="E2iFWPw7SRzdKCDip5L--61" value="&amp;nbsp; &amp;nbsp;12" style="rounded=0;whiteSpace=wrap;html=1;align=left;" vertex="1" parent="1">
          <mxGeometry x="155" y="775" width="120" height="30" as="geometry" />
        </mxCell>
        <mxCell id="E2iFWPw7SRzdKCDip5L--62" value="" style="rounded=0;whiteSpace=wrap;html=1;" vertex="1" parent="1">
          <mxGeometry x="195" y="775" width="40" height="30" as="geometry" />
        </mxCell>
        <mxCell id="E2iFWPw7SRzdKCDip5L--63" value="" style="rounded=0;whiteSpace=wrap;html=1;align=left;" vertex="1" parent="1">
          <mxGeometry x="315" y="775" width="120" height="30" as="geometry" />
        </mxCell>
        <mxCell id="E2iFWPw7SRzdKCDip5L--64" value="" style="rounded=0;whiteSpace=wrap;html=1;" vertex="1" parent="1">
          <mxGeometry x="355" y="775" width="40" height="30" as="geometry" />
        </mxCell>
        <mxCell id="E2iFWPw7SRzdKCDip5L--65" style="edgeStyle=none;rounded=0;orthogonalLoop=1;jettySize=auto;html=1;exitX=0.75;exitY=1;exitDx=0;exitDy=0;entryX=0.5;entryY=0;entryDx=0;entryDy=0;endArrow=none;endFill=0;" edge="1" parent="1" source="E2iFWPw7SRzdKCDip5L--59" target="E2iFWPw7SRzdKCDip5L--64">
          <mxGeometry relative="1" as="geometry">
            <mxPoint x="345" y="560" as="sourcePoint" />
            <mxPoint x="395" y="575" as="targetPoint" />
          </mxGeometry>
        </mxCell>
        <mxCell id="E2iFWPw7SRzdKCDip5L--66" style="edgeStyle=none;rounded=0;orthogonalLoop=1;jettySize=auto;html=1;exitX=0.25;exitY=1;exitDx=0;exitDy=0;entryX=0.5;entryY=0;entryDx=0;entryDy=0;endArrow=none;endFill=0;" edge="1" parent="1" source="E2iFWPw7SRzdKCDip5L--59" target="E2iFWPw7SRzdKCDip5L--62">
          <mxGeometry relative="1" as="geometry">
            <mxPoint x="365" y="580" as="sourcePoint" />
            <mxPoint x="415" y="595" as="targetPoint" />
          </mxGeometry>
        </mxCell>
        <mxCell id="E2iFWPw7SRzdKCDip5L--76" value="Fusion" style="text;html=1;align=center;verticalAlign=middle;resizable=0;points=[];autosize=1;strokeColor=none;fillColor=none;" vertex="1" parent="1">
          <mxGeometry x="205" y="805" width="60" height="30" as="geometry" />
        </mxCell>
        <mxCell id="E2iFWPw7SRzdKCDip5L--77" value="&amp;nbsp; &amp;nbsp;12&amp;nbsp;&amp;nbsp;" style="rounded=0;whiteSpace=wrap;html=1;align=left;" vertex="1" parent="1">
          <mxGeometry x="235" y="835" width="120" height="30" as="geometry" />
        </mxCell>
        <mxCell id="E2iFWPw7SRzdKCDip5L--78" value="61" style="rounded=0;whiteSpace=wrap;html=1;" vertex="1" parent="1">
          <mxGeometry x="275" y="835" width="40" height="30" as="geometry" />
        </mxCell>
      </root>
    </mxGraphModel>
  </diagram>
</mxfile>
